<svg preserveAspectRatio="none" width="100%" height="100%" overflow="visible" style="display: block;" viewBox="0 0 428.303 37.1546" fill="none" xmlns="http://www.w3.org/2000/svg">
<g id="Group">
<path id="Vector" d="M0 0.250005H26.3875V36.8971H0" stroke="var(--stroke-0, #151A2C)" stroke-width="0.5" stroke-miterlimit="10"/>
<path id="Vector_2" d="M59.8572 0.25H26.3875V36.9046H59.8572V0.25Z" stroke="var(--stroke-0, #151A2C)" stroke-width="0.5" stroke-miterlimit="10"/>
<path id="Vector_3" d="M93.3268 0.25H59.8572V36.9046H93.3268V0.25Z" stroke="var(--stroke-0, #151A2C)" stroke-width="0.5" stroke-miterlimit="10"/>
<path id="Vector_4" d="M126.804 0.25H93.3343V36.9046H126.804V0.25Z" stroke="var(--stroke-0, #151A2C)" stroke-width="0.5" stroke-miterlimit="10"/>
<path id="Vector_5" d="M160.274 0.25H126.804V36.9046H160.274V0.25Z" stroke="var(--stroke-0, #151A2C)" stroke-width="0.5" stroke-miterlimit="10"/>
<path id="Vector_6" d="M193.743 0.25H160.274V36.9046H193.743V0.25Z" stroke="var(--stroke-0, #151A2C)" stroke-width="0.5" stroke-miterlimit="10"/>
<path id="Vector_7" d="M227.22 0.25H193.751V36.9046H227.22V0.25Z" stroke="var(--stroke-0, #151A2C)" stroke-width="0.5" stroke-miterlimit="10"/>
<path id="Vector_8" d="M260.69 0.25H227.22V36.9046H260.69V0.25Z" stroke="var(--stroke-0, #151A2C)" stroke-width="0.5" stroke-miterlimit="10"/>
<path id="Vector_9" d="M294.16 0.25H260.69V36.9046H294.16V0.25Z" stroke="var(--stroke-0, #151A2C)" stroke-width="0.5" stroke-miterlimit="10"/>
<path id="Vector_10" d="M327.637 0.25H294.167V36.9046H327.637V0.25Z" stroke="var(--stroke-0, #151A2C)" stroke-width="0.5" stroke-miterlimit="10"/>
<path id="Vector_11" d="M361.106 0.25H327.637V36.9046H361.106V0.25Z" stroke="var(--stroke-0, #151A2C)" stroke-width="0.5" stroke-miterlimit="10"/>
<path id="Vector_12" d="M394.576 0.25H361.106V36.9046H394.576V0.25Z" stroke="var(--stroke-0, #151A2C)" stroke-width="0.5" stroke-miterlimit="10"/>
<path id="Vector_13" d="M428.053 0.25H394.584V36.9046H428.053V0.25Z" stroke="var(--stroke-0, #151A2C)" stroke-width="0.5" stroke-miterlimit="10"/>
</g>
</svg>
