<svg preserveAspectRatio="none" width="100%" height="100%" overflow="visible" style="display: block;" viewBox="0 0 14.5914 14.5781" fill="none" xmlns="http://www.w3.org/2000/svg">
<path id="Vector" d="M5.96237 7.95571C6.54168 8.73017 7.42879 9.21484 8.39347 9.28393C9.35816 9.35302 10.3053 8.99971 10.989 8.31571L12.989 6.31571C14.2523 5.00778 14.2342 2.92876 12.9484 1.64298C11.6627 0.357199 9.58364 0.339133 8.27571 1.60237L7.12904 2.74237M8.62904 6.62237C8.04974 5.84791 7.16262 5.36324 6.19794 5.29415C5.23326 5.22506 4.28613 5.57837 3.60237 6.26237L1.60237 8.26237C0.339133 9.5703 0.357199 11.6493 1.64298 12.9351C2.92876 14.2209 5.00778 14.2389 6.31571 12.9757L7.45571 11.8357" stroke="var(--stroke-0, #6CE182)" stroke-width="1.33333" stroke-linecap="round" stroke-linejoin="round"/>
</svg>
