<svg preserveAspectRatio="none" width="100%" height="100%" overflow="visible" style="display: block;" viewBox="0 0 518.716 43.9023" fill="none" xmlns="http://www.w3.org/2000/svg">
<g id="Group">
<path id="Vector" d="M40.1183 0V43.6523H0.25V0" stroke="var(--stroke-0, #151A2C)" stroke-width="0.5" stroke-miterlimit="10"/>
<path id="Vector_2" d="M79.9776 0V43.6523H40.1183V0" stroke="var(--stroke-0, #151A2C)" stroke-width="0.5" stroke-miterlimit="10"/>
<path id="Vector_3" d="M119.837 0V43.6523H79.9776V0" stroke="var(--stroke-0, #151A2C)" stroke-width="0.5" stroke-miterlimit="10"/>
<path id="Vector_4" d="M159.705 0V43.6523H119.837V0" stroke="var(--stroke-0, #151A2C)" stroke-width="0.5" stroke-miterlimit="10"/>
<path id="Vector_5" d="M199.564 0V43.6523H159.705V0" stroke="var(--stroke-0, #151A2C)" stroke-width="0.5" stroke-miterlimit="10"/>
<path id="Vector_6" d="M239.424 0V43.6523H199.564V0" stroke="var(--stroke-0, #151A2C)" stroke-width="0.5" stroke-miterlimit="10"/>
<path id="Vector_7" d="M279.292 0V43.6523H239.424V0" stroke="var(--stroke-0, #151A2C)" stroke-width="0.5" stroke-miterlimit="10"/>
<path id="Vector_8" d="M319.151 0V43.6523H279.292V0" stroke="var(--stroke-0, #151A2C)" stroke-width="0.5" stroke-miterlimit="10"/>
<path id="Vector_9" d="M359.011 0V43.6523H319.151V0" stroke="var(--stroke-0, #151A2C)" stroke-width="0.5" stroke-miterlimit="10"/>
<path id="Vector_10" d="M398.879 0V43.6523H359.011V0" stroke="var(--stroke-0, #151A2C)" stroke-width="0.5" stroke-miterlimit="10"/>
<path id="Vector_11" d="M438.738 0V43.6523H398.879V0" stroke="var(--stroke-0, #151A2C)" stroke-width="0.5" stroke-miterlimit="10"/>
<path id="Vector_12" d="M478.606 0V43.6523H438.738V0" stroke="var(--stroke-0, #151A2C)" stroke-width="0.5" stroke-miterlimit="10"/>
<path id="Vector_13" d="M518.466 0V43.6523H478.606V0" stroke="var(--stroke-0, #151A2C)" stroke-width="0.5" stroke-miterlimit="10"/>
</g>
</svg>
