<svg width="90" height="38" viewBox="0 0 90 38" fill="none" xmlns="http://www.w3.org/2000/svg">
<path d="M0 0.692871H28.3589V0.890788H0V0.692871Z" fill="#6CE182"/>
<rect x="33.4792" width="17.3304" height="1.58333" fill="#6CE182"/>
<path d="M55.9299 0.692871H90V0.890788H55.9299V0.692871Z" fill="#6CE182"/>
<path d="M12.5055 13.8532L11.5208 16.7105L25.1484 16.5249L28.2001 21.4422L10.0438 21.4422L8.89848 24.3327L29.5988 24.3327L33.6677 30.1139H0L8.30329 7.88647L20.616 7.88647L23.8768 13.6676L12.5055 13.8532Z" fill="#B759FF"/>
<path d="M62.7505 7.88647L48.5677 27.9875C47.4106 29.6487 45.9229 30.4793 44.1707 30.4793C42.4186 30.4793 41.03 29.7152 39.8399 27.9875L25.9877 7.88647H34.1205L44.336 23.0038L54.75 7.88647H62.7505Z" fill="#B759FF"/>
<path d="M90 30.1139H64.3123L68.4118 24.3327H77.9331L71.6847 15.2624L61.2047 30.1139H53.2042L67.3869 10.0129C68.3457 8.68386 69.6681 7.521 71.7839 7.521C73.8336 7.521 75.1891 8.61741 76.1478 10.0129L90 30.1139Z" fill="#B759FF"/>
<path d="M0 37.1094H28.3589V37.3073H0V37.1094Z" fill="#6CE182"/>
<rect x="33.4792" y="36.4165" width="17.3304" height="1.58333" fill="#6CE182"/>
<path d="M55.9299 37.1094H90V37.3073H55.9299V37.1094Z" fill="#6CE182"/>
</svg>
