<svg preserveAspectRatio="none" width="100%" height="100%" overflow="visible" style="display: block;" viewBox="0 0 457 116" fill="none" xmlns="http://www.w3.org/2000/svg">
<g id="EVA">
<path d="M63.5 31.9943L58.5 46.4313L127.698 45.4935L143.194 70.3386L51 70.3386L45.1845 84.9436L150.296 84.9436L170.957 114.153L0 114.153L42.1623 1.8466L104.684 1.8466L121.241 31.0564L63.5 31.9943Z" fill="var(--fill-0, #B759FF)"/>
<path d="M318.633 1.8466L246.616 103.41C240.741 111.803 233.186 116 224.289 116C215.392 116 208.341 112.139 202.298 103.41L131.96 1.8466H173.256L225.129 78.2287L278.008 1.8466H318.633Z" fill="var(--fill-0, #B759FF)"/>
<path d="M457 114.153H326.564L347.38 84.9436H395.727L363.999 39.1143L310.784 114.153H270.159L342.176 12.5904C347.044 5.87554 353.759 0 364.503 0C374.911 0 381.793 5.53979 386.662 12.5904L457 114.153Z" fill="var(--fill-0, #B759FF)"/>
</g>
</svg>
