<svg preserveAspectRatio="none" width="100%" height="100%" overflow="visible" style="display: block;" viewBox="0 0 12.9342 12.9225" fill="none" xmlns="http://www.w3.org/2000/svg">
<path id="Vector" d="M5.30041 7.04458C5.8073 7.72223 6.58353 8.14632 7.42762 8.20677C8.27172 8.26722 9.10046 7.95808 9.69874 7.35958L11.4487 5.60958C12.5541 4.46514 12.5383 2.646 11.4132 1.52094C10.2882 0.395883 8.46902 0.380075 7.32458 1.48541L6.32124 2.48291M7.63374 5.87791C7.12685 5.20026 6.35063 4.77617 5.50653 4.71572C4.66243 4.65526 3.8337 4.96441 3.23541 5.56291L1.48541 7.31291C0.380075 8.45735 0.395882 10.2765 1.52094 11.4015C2.646 12.5266 4.46514 12.5424 5.60958 11.4371L6.60708 10.4396" stroke="var(--stroke-0, #6CE182)" stroke-width="1.33333" stroke-linecap="round" stroke-linejoin="round"/>
</svg>
