<svg preserveAspectRatio="none" width="100%" height="100%" overflow="visible" style="display: block;" viewBox="0 0 90 22.9583" fill="none" xmlns="http://www.w3.org/2000/svg">
<g id="EVA">
<path d="M12.5055 6.3322L11.5208 9.18953L25.1484 9.00392L28.2001 13.9212L10.0438 13.9212L8.89848 16.8117L29.5988 16.8117L33.6677 22.5929L0 22.5929L8.30329 0.365472L20.616 0.365472L23.8768 6.14659L12.5055 6.3322Z" fill="var(--fill-0, #B759FF)"/>
<path d="M62.7505 0.365472L48.5677 20.4665C47.4106 22.1277 45.9229 22.9583 44.1707 22.9583C42.4186 22.9583 41.03 22.1942 39.8399 20.4665L25.9877 0.365472H34.1205L44.336 15.4828L54.75 0.365472H62.7505Z" fill="var(--fill-0, #B759FF)"/>
<path d="M90 22.5929H64.3123L68.4118 16.8117H77.9331L71.6847 7.74138L61.2047 22.5929H53.2042L67.3869 2.49186C68.3457 1.16287 69.6681 0 71.7839 0C73.8336 0 75.1891 1.09642 76.1478 2.49186L90 22.5929Z" fill="var(--fill-0, #B759FF)"/>
</g>
</svg>
