<svg preserveAspectRatio="none" width="100%" height="100%" overflow="visible" style="display: block;" viewBox="0 0 24.8887 23.1104" fill="none" xmlns="http://www.w3.org/2000/svg">
<path id="Union" d="M18.9619 0C20.2705 0 21.3329 1.06159 21.333 2.37012V4.74023C22.6415 4.74043 23.7031 5.80279 23.7031 7.11133V10.9854C24.4109 11.3954 24.8885 12.1597 24.8887 13.0361V15.4072C24.8885 16.2835 24.4107 17.0468 23.7031 17.457V20.7402C23.7031 22.0487 22.6415 23.1102 21.333 23.1104H3.55566C1.59313 23.1104 0.000375789 21.5181 0 19.5557V2.96289C0 2.68378 0.0964384 2.42706 0.257812 2.22461C0.784956 0.920663 2.06341 0 3.55566 0H18.9619ZM2.37012 19.5557C2.37049 20.209 2.90222 20.7402 3.55566 20.7402H21.333V17.7773H18.9619C16.9994 17.7771 15.4074 16.1842 15.4072 14.2217C15.4074 12.2592 16.9994 10.6662 18.9619 10.666H21.333V7.11133H3.55566C3.13995 7.11133 2.74101 7.03853 2.37012 6.90723V19.5557ZM18.9619 13.0361C18.3085 13.0364 17.7775 13.5683 17.7773 14.2217C17.7775 14.8751 18.3085 15.407 18.9619 15.4072H22.5176V13.0361H18.9619ZM3.55566 2.37012C2.90199 2.37012 2.37012 2.90199 2.37012 3.55566C2.37037 4.20912 2.90215 4.74023 3.55566 4.74023H18.9619V2.37012H3.55566Z" fill="var(--fill-0, #6CE182)"/>
</svg>
