<svg preserveAspectRatio="none" width="100%" height="100%" overflow="visible" style="display: block;" viewBox="0 0 16 17" fill="none" xmlns="http://www.w3.org/2000/svg">
<path id="Vector (Stroke)" d="M14.0503 0.355688C14.4966 -0.118563 15.2189 -0.118563 15.6652 0.355688C16.1116 0.829939 16.1116 1.59731 15.6652 2.07156L9.61494 8.5L15.6652 14.9284C16.1116 15.4027 16.1116 16.1701 15.6652 16.6443C15.2189 17.1186 14.4966 17.1186 14.0503 16.6443L8 10.2159L1.94971 16.6443C1.50335 17.1186 0.781119 17.1186 0.334765 16.6443C-0.111588 16.1701 -0.111588 15.4027 0.334765 14.9284L6.38506 8.5L0.334765 2.07156C-0.111588 1.59731 -0.111588 0.829939 0.334765 0.355688C0.781119 -0.118563 1.50335 -0.118563 1.94971 0.355688L8 6.78412L14.0503 0.355688Z" fill="var(--fill-0, #6B7280)"/>
</svg>
