<svg preserveAspectRatio="none" width="100%" height="100%" overflow="visible" style="display: block;" viewBox="0 0 435.643 36.9046" fill="none" xmlns="http://www.w3.org/2000/svg">
<g id="Group">
<path id="Vector" d="M0.25 36.9046V0.25H33.7272V36.9046" stroke="var(--stroke-0, #151A2C)" stroke-width="0.5" stroke-miterlimit="10"/>
<path id="Vector_2" d="M33.7272 36.9046V0.250007H67.1968V36.9046" stroke="var(--stroke-0, #151A2C)" stroke-width="0.5" stroke-miterlimit="10"/>
<path id="Vector_3" d="M67.1968 36.9046V0.250007H100.666V36.9046" stroke="var(--stroke-0, #151A2C)" stroke-width="0.5" stroke-miterlimit="10"/>
<path id="Vector_4" d="M100.666 36.9046V0.250007H134.144V36.9046" stroke="var(--stroke-0, #151A2C)" stroke-width="0.5" stroke-miterlimit="10"/>
<path id="Vector_5" d="M134.144 36.9046V0.250007H167.613V36.9046" stroke="var(--stroke-0, #151A2C)" stroke-width="0.5" stroke-miterlimit="10"/>
<path id="Vector_6" d="M167.613 36.9046V0.250007H201.083V36.9046" stroke="var(--stroke-0, #151A2C)" stroke-width="0.5" stroke-miterlimit="10"/>
<path id="Vector_7" d="M201.083 36.9046V0.250007H234.56V36.9046" stroke="var(--stroke-0, #151A2C)" stroke-width="0.5" stroke-miterlimit="10"/>
<path id="Vector_8" d="M234.56 36.9046V0.250007H268.03V36.9046" stroke="var(--stroke-0, #151A2C)" stroke-width="0.5" stroke-miterlimit="10"/>
<path id="Vector_9" d="M268.03 36.9046V0.250007H301.499V36.9046" stroke="var(--stroke-0, #151A2C)" stroke-width="0.5" stroke-miterlimit="10"/>
<path id="Vector_10" d="M301.499 36.9046V0.250007H334.976V36.9046" stroke="var(--stroke-0, #151A2C)" stroke-width="0.5" stroke-miterlimit="10"/>
<path id="Vector_11" d="M334.976 36.9046V0.250007H368.446V36.9046" stroke="var(--stroke-0, #151A2C)" stroke-width="0.5" stroke-miterlimit="10"/>
<path id="Vector_12" d="M368.446 36.9046V0.250007H401.923V36.9046" stroke="var(--stroke-0, #151A2C)" stroke-width="0.5" stroke-miterlimit="10"/>
<path id="Vector_13" d="M401.923 36.9046V0.250007H435.393V36.9046" stroke="var(--stroke-0, #151A2C)" stroke-width="0.5" stroke-miterlimit="10"/>
</g>
</svg>
