<svg preserveAspectRatio="none" width="100%" height="100%" overflow="visible" style="display: block;" viewBox="0 0 428.303 36.9046" fill="none" xmlns="http://www.w3.org/2000/svg">
<g id="Group">
<path id="Vector" d="M0 0.25H26.3875V36.9046" stroke="var(--stroke-0, #151A2C)" stroke-width="0.5" stroke-miterlimit="10"/>
<path id="Vector_2" d="M26.3875 36.9046V0.250007H59.8572V36.9046" stroke="var(--stroke-0, #151A2C)" stroke-width="0.5" stroke-miterlimit="10"/>
<path id="Vector_3" d="M59.8572 36.9046V0.250007H93.3343V36.9046" stroke="var(--stroke-0, #151A2C)" stroke-width="0.5" stroke-miterlimit="10"/>
<path id="Vector_4" d="M93.3343 36.9046V0.250007H126.804V36.9046" stroke="var(--stroke-0, #151A2C)" stroke-width="0.5" stroke-miterlimit="10"/>
<path id="Vector_5" d="M126.804 36.9046V0.250007H160.274V36.9046" stroke="var(--stroke-0, #151A2C)" stroke-width="0.5" stroke-miterlimit="10"/>
<path id="Vector_6" d="M160.274 36.9046V0.250007H193.751V36.9046" stroke="var(--stroke-0, #151A2C)" stroke-width="0.5" stroke-miterlimit="10"/>
<path id="Vector_7" d="M193.751 36.9046V0.250007H227.22V36.9046" stroke="var(--stroke-0, #151A2C)" stroke-width="0.5" stroke-miterlimit="10"/>
<path id="Vector_8" d="M227.22 36.9046V0.250007H260.69V36.9046" stroke="var(--stroke-0, #151A2C)" stroke-width="0.5" stroke-miterlimit="10"/>
<path id="Vector_9" d="M260.69 36.9046V0.250007H294.167V36.9046" stroke="var(--stroke-0, #151A2C)" stroke-width="0.5" stroke-miterlimit="10"/>
<path id="Vector_10" d="M294.167 36.9046V0.250007H327.637V36.9046" stroke="var(--stroke-0, #151A2C)" stroke-width="0.5" stroke-miterlimit="10"/>
<path id="Vector_11" d="M327.637 36.9046V0.250007H361.106V36.9046" stroke="var(--stroke-0, #151A2C)" stroke-width="0.5" stroke-miterlimit="10"/>
<path id="Vector_12" d="M361.106 36.9046V0.250007H394.584V36.9046" stroke="var(--stroke-0, #151A2C)" stroke-width="0.5" stroke-miterlimit="10"/>
<path id="Vector_13" d="M394.584 36.9046V0.250007H428.053V36.9046" stroke="var(--stroke-0, #151A2C)" stroke-width="0.5" stroke-miterlimit="10"/>
</g>
</svg>
