<svg preserveAspectRatio="none" width="100%" height="100%" overflow="visible" style="display: block;" viewBox="0 0 518.716 44.1523" fill="none" xmlns="http://www.w3.org/2000/svg">
<g id="Group">
<path id="Vector" d="M40.1093 0.25H0.25V43.9023H40.1093V0.25Z" stroke="var(--stroke-0, #151A2C)" stroke-width="0.5" stroke-miterlimit="10"/>
<path id="Vector_2" d="M79.9775 0.250012H40.1183V43.9023H79.9775V0.250012Z" stroke="var(--stroke-0, #151A2C)" stroke-width="0.5" stroke-miterlimit="10"/>
<path id="Vector_3" d="M119.837 0.250012H79.9775V43.9023H119.837V0.250012Z" stroke="var(--stroke-0, #151A2C)" stroke-width="0.5" stroke-miterlimit="10"/>
<path id="Vector_4" d="M159.696 0.250012H119.837V43.9023H159.696V0.250012Z" stroke="var(--stroke-0, #151A2C)" stroke-width="0.5" stroke-miterlimit="10"/>
<path id="Vector_5" d="M199.564 0.250012H159.705V43.9023H199.564V0.250012Z" stroke="var(--stroke-0, #151A2C)" stroke-width="0.5" stroke-miterlimit="10"/>
<path id="Vector_6" d="M239.424 0.250012H199.564V43.9023H239.424V0.250012Z" stroke="var(--stroke-0, #151A2C)" stroke-width="0.5" stroke-miterlimit="10"/>
<path id="Vector_7" d="M279.283 0.250012H239.424V43.9023H279.283V0.250012Z" stroke="var(--stroke-0, #151A2C)" stroke-width="0.5" stroke-miterlimit="10"/>
<path id="Vector_8" d="M319.151 0.250012H279.292V43.9023H319.151V0.250012Z" stroke="var(--stroke-0, #151A2C)" stroke-width="0.5" stroke-miterlimit="10"/>
<path id="Vector_9" d="M359.011 0.250012H319.151V43.9023H359.011V0.250012Z" stroke="var(--stroke-0, #151A2C)" stroke-width="0.5" stroke-miterlimit="10"/>
<path id="Vector_10" d="M398.87 0.250012H359.011V43.9023H398.87V0.250012Z" stroke="var(--stroke-0, #151A2C)" stroke-width="0.5" stroke-miterlimit="10"/>
<path id="Vector_11" d="M438.738 0.250012H398.879V43.9023H438.738V0.250012Z" stroke="var(--stroke-0, #151A2C)" stroke-width="0.5" stroke-miterlimit="10"/>
<path id="Vector_12" d="M478.597 0.250012H438.738V43.9023H478.597V0.250012Z" stroke="var(--stroke-0, #151A2C)" stroke-width="0.5" stroke-miterlimit="10"/>
<path id="Vector_13" d="M518.466 0.250012H478.606V43.9023H518.466V0.250012Z" stroke="var(--stroke-0, #151A2C)" stroke-width="0.5" stroke-miterlimit="10"/>
</g>
</svg>
