<svg preserveAspectRatio="none" width="100%" height="100%" overflow="visible" style="display: block;" viewBox="0 0 510.022 43.9023" fill="none" xmlns="http://www.w3.org/2000/svg">
<g id="Group">
<path id="Vector" d="M31.4251 0V43.6523H0" stroke="var(--stroke-0, #151A2C)" stroke-width="0.5" stroke-miterlimit="10"/>
<path id="Vector_2" d="M71.2844 0V43.6523H31.4251V0" stroke="var(--stroke-0, #151A2C)" stroke-width="0.5" stroke-miterlimit="10"/>
<path id="Vector_3" d="M111.153 0V43.6523H71.2844V0" stroke="var(--stroke-0, #151A2C)" stroke-width="0.5" stroke-miterlimit="10"/>
<path id="Vector_4" d="M151.012 0V43.6523H111.153V0" stroke="var(--stroke-0, #151A2C)" stroke-width="0.5" stroke-miterlimit="10"/>
<path id="Vector_5" d="M190.871 0V43.6523H151.012V0" stroke="var(--stroke-0, #151A2C)" stroke-width="0.5" stroke-miterlimit="10"/>
<path id="Vector_6" d="M230.74 0V43.6523H190.871V0" stroke="var(--stroke-0, #151A2C)" stroke-width="0.5" stroke-miterlimit="10"/>
<path id="Vector_7" d="M270.599 0V43.6523H230.739V0" stroke="var(--stroke-0, #151A2C)" stroke-width="0.5" stroke-miterlimit="10"/>
<path id="Vector_8" d="M310.458 0V43.6523H270.599V0" stroke="var(--stroke-0, #151A2C)" stroke-width="0.5" stroke-miterlimit="10"/>
<path id="Vector_9" d="M350.326 0V43.6523H310.458V0" stroke="var(--stroke-0, #151A2C)" stroke-width="0.5" stroke-miterlimit="10"/>
<path id="Vector_10" d="M390.186 0V43.6523H350.326V0" stroke="var(--stroke-0, #151A2C)" stroke-width="0.5" stroke-miterlimit="10"/>
<path id="Vector_11" d="M430.045 0V43.6523H390.186V0" stroke="var(--stroke-0, #151A2C)" stroke-width="0.5" stroke-miterlimit="10"/>
<path id="Vector_12" d="M469.913 0V43.6523H430.045V0" stroke="var(--stroke-0, #151A2C)" stroke-width="0.5" stroke-miterlimit="10"/>
<path id="Vector_13" d="M509.772 0V43.6523H469.913V0" stroke="var(--stroke-0, #151A2C)" stroke-width="0.5" stroke-miterlimit="10"/>
</g>
</svg>
