<svg preserveAspectRatio="none" width="100%" height="100%" overflow="visible" style="display: block;" viewBox="0 0 541.001 172" fill="none" xmlns="http://www.w3.org/2000/svg">
<g id="Group 2087328053">
<g id="Group">
<g id="Vector">
<path d="M3.00003 166C3.00003 167.656 4.34429 169 6.00004 169C7.65579 169 9.00005 167.656 9.00005 166C9.00005 164.344 7.65579 163 6.00004 163C4.34429 163 3.00003 164.344 3.00003 166V166" fill="var(--fill-0, #080A0E)"/>
<path d="M3.00003 166C3.00003 167.656 4.34429 169 6.00004 169C7.65579 169 9.00005 167.656 9.00005 166C9.00005 164.344 7.65579 163 6.00004 163C4.34429 163 3.00003 164.344 3.00003 166V166" stroke="var(--stroke-0, #10B981)" stroke-width="1.5"/>
</g>
<path id="Vector_2" d="M0 166C0 169.311 2.68852 172 6.00002 172C9.31151 172 12 169.311 12 166C12 162.689 9.31151 160 6.00002 160C2.68852 160 0 162.689 0 166V166" fill="var(--fill-0, #10B981)"/>
</g>
<g id="Group_2">
<g id="Vector_3">
<path d="M532.001 6C532.001 7.65575 533.345 9 535.001 9C536.656 9 538.001 7.65575 538.001 6C538.001 4.34425 536.656 3 535.001 3C533.345 3 532.001 4.34425 532.001 6V6" fill="var(--fill-0, #080A0E)"/>
<path d="M532.001 6C532.001 7.65575 533.345 9 535.001 9C536.656 9 538.001 7.65575 538.001 6C538.001 4.34425 536.656 3 535.001 3C533.345 3 532.001 4.34425 532.001 6V6" stroke="var(--stroke-0, #EF4444)" stroke-width="1.5"/>
</g>
<path id="Vector_4" d="M529.001 6C529.001 9.31149 531.689 12 535.001 12C538.312 12 541.001 9.31149 541.001 6C541.001 2.68851 538.312 0 535.001 0C531.689 0 529.001 2.68851 529.001 6V6" fill="var(--fill-0, #EF4444)"/>
</g>
<g id="Vector_5">
<path d="M263.83 79C263.83 81.2077 265.623 83 267.83 83C270.038 83 271.83 81.2077 271.83 79C271.83 76.7923 270.038 75 267.83 75C265.623 75 263.83 76.7923 263.83 79V79" fill="var(--fill-0, #10B981)"/>
<path d="M263.83 79C263.83 81.2077 265.623 83 267.83 83C270.038 83 271.83 81.2077 271.83 79C271.83 76.7923 270.038 75 267.83 75C265.623 75 263.83 76.7923 263.83 79V79" stroke="var(--stroke-0, white)" stroke-width="2"/>
</g>
</g>
</svg>
